<?xml version="1.0" encoding="UTF-8" standalone="no" ?>
<!DOCTYPE svg PUBLIC "-//W3C//DTD SVG 1.1//EN" "http://www.w3.org/Graphics/SVG/1.1/DTD/svg11.dtd">
<svg xmlns="http://www.w3.org/2000/svg" xmlns:xlink="http://www.w3.org/1999/xlink" version="1.1" width="880" height="280" viewBox="0 0 880 280" xml:space="preserve">
<desc>Created with Fabric.js 5.2.4</desc>
<defs>
</defs>
<rect x="0" y="0" width="100%" height="100%" fill="transparent"></rect>
<g transform="matrix(1 0 0 1 440 140)" id="a535ec56-9108-45b0-9c74-81094385247a"  >
<rect style="stroke: none; stroke-width: 1; stroke-dasharray: none; stroke-linecap: butt; stroke-dashoffset: 0; stroke-linejoin: miter; stroke-miterlimit: 4; fill: rgb(0,0,0); fill-rule: nonzero; opacity: 1; visibility: hidden;" vector-effect="non-scaling-stroke"  x="-440" y="-140" rx="0" ry="0" width="880" height="280" />
</g>
<g transform="matrix(Infinity NaN NaN Infinity 0 0)" id="8b0873e9-a2c6-407d-aa2c-c7ff45e582c0"  >
</g>
<g transform="matrix(0.79 0 0 0.79 639.81 140)"  >
<g style="" vector-effect="non-scaling-stroke"   >
		<g transform="matrix(1 0 0 1 -710.34 0)"  >
<path style="stroke: none; stroke-width: 1; stroke-dasharray: none; stroke-linecap: butt; stroke-dashoffset: 0; stroke-linejoin: miter; stroke-miterlimit: 4; fill: rgb(224,99,57); fill-rule: evenodd; opacity: 1;" vector-effect="non-scaling-stroke"  transform=" translate(-161, -250)" d="M 222.354 250.012 L 222.354 127.304 L 99.645 127.304 L 99.645 188.67000000000002 L 161.012 188.67000000000002 L 161.012 250.012 L 222.35399999999998 250.012 Z M 160.988 250.012 L 99.645 250.012 C 99.645 317.793 154.598 372.721 222.32999999999998 372.696 L 222.32999999999998 311.35400000000004 C 188.452 311.35400000000004 160.988 283.89000000000004 160.988 250.01200000000006 Z" stroke-linecap="round" />
</g>
		<g transform="matrix(1 0 0 1 101.84 -5.19)"  >
<path style="stroke: none; stroke-width: 1; stroke-dasharray: none; stroke-linecap: butt; stroke-dashoffset: 0; stroke-linejoin: miter; stroke-miterlimit: 4; fill: rgb(19,19,19); fill-rule: nonzero; opacity: 1;" vector-effect="non-scaling-stroke"  transform=" translate(-973.18, -244.82)" d="M 303.321 153.968 L 506.79600000000005 153.968 L 506.79600000000005 187.084 L 303.321 187.084 L 303.321 153.96800000000002 Z M 385.36800000000005 182.908 L 425.04800000000006 182.908 L 425.04800000000006 347 L 385.36800000000005 347 L 385.36800000000005 182.908 Z M 641.538 297.772 L 679.131 297.772 C 677.539 307.916 673.2629999999999 316.966 666.302 324.92199999999997 C 659.539 332.878 650.29 339.143 638.5550000000001 343.71799999999996 C 626.82 348.29299999999995 612.499 350.58 595.5930000000001 350.58 C 576.6970000000001 350.58 559.989 347.597 545.47 341.63 C 530.95 335.464 519.613 326.613 511.458 315.077 C 503.30300000000005 303.54 499.226 289.617 499.226 273.308 C 499.226 256.998 503.204 243.075 511.16 231.539 C 519.116 219.803 530.154 210.85299999999998 544.2760000000001 204.68699999999998 C 558.5970000000001 198.521 575.3050000000001 195.438 594.3990000000001 195.438 C 613.8910000000001 195.438 630.1020000000001 198.521 643.0300000000001 204.68699999999998 C 655.9590000000001 210.85299999999998 665.5060000000001 220.201 671.6720000000001 232.73199999999997 C 678.0370000000001 245.06399999999996 680.7220000000001 260.876 679.7270000000001 280.16999999999996 L 538.309 280.16999999999996 C 539.304 287.72799999999995 542.088 294.59 546.663 300.756 C 551.437 306.92199999999997 557.802 311.79499999999996 565.758 315.375 C 573.912 318.955 583.5590000000001 320.745 594.6980000000001 320.745 C 607.0290000000001 320.745 617.2730000000001 318.657 625.4280000000001 314.48 C 633.7810000000001 310.10400000000004 639.1520000000002 304.535 641.5380000000001 297.77200000000005 Z M 592.609 224.975 C 578.288 224.975 566.653 228.15699999999998 557.702 234.522 C 548.752 240.688 542.984 248.346 540.398 257.495 L 641.24 257.495 C 640.246 247.55 635.472 239.693 626.919 233.925 C 618.566 227.958 607.129 224.97500000000002 592.6089999999999 224.97500000000002 Z M 711.571 139.05 L 750.357 139.05 L 750.357 347 L 711.5709999999999 347 L 711.5709999999999 139.05 Z M 877.0020000000001 350.58000000000004 C 858.3050000000001 350.58000000000004 841.797 347.59700000000004 827.4760000000001 341.63000000000005 C 813.3540000000002 335.66300000000007 802.315 327.0110000000001 794.3590000000002 315.67300000000006 C 786.4030000000001 304.13700000000006 782.4250000000002 290.01500000000004 782.4250000000002 273.30800000000005 C 782.4250000000002 256.6 786.4030000000001 242.47800000000007 794.3590000000002 230.94200000000006 C 802.3150000000002 219.20700000000005 813.3540000000002 210.35600000000005 827.4760000000001 204.38900000000007 C 841.7970000000001 198.42200000000005 858.3050000000001 195.43800000000007 877.0020000000001 195.43800000000007 C 895.6980000000001 195.43800000000007 912.008 198.42200000000008 925.931 204.38900000000007 C 940.053 210.35600000000008 951.0920000000001 219.20700000000008 959.048 230.94200000000006 C 967.004 242.47800000000007 970.982 256.6000000000001 970.982 273.30800000000005 C 970.982 290.01500000000004 967.004 304.13700000000006 959.048 315.67300000000006 C 951.092 327.0110000000001 940.053 335.66300000000007 925.931 341.63000000000005 C 912.008 347.59700000000004 895.6980000000001 350.58000000000004 877.0020000000001 350.58000000000004 Z M 877.0020000000001 320.74500000000006 C 887.345 320.74500000000006 896.594 318.95500000000004 904.748 315.37500000000006 C 913.1020000000001 311.59600000000006 919.666 306.22600000000006 924.44 299.26400000000007 C 929.2130000000001 292.10400000000004 931.6 283.4510000000001 931.6 273.30800000000005 C 931.6 263.16400000000004 929.2130000000001 254.51200000000006 924.44 247.35100000000006 C 919.666 239.99200000000005 913.202 234.42300000000006 905.047 230.64400000000006 C 896.892 226.86400000000006 887.544 224.97500000000005 877.0020000000001 224.97500000000005 C 866.6590000000001 224.97500000000005 857.311 226.86400000000006 848.9570000000001 230.64400000000006 C 840.6030000000001 234.42300000000006 833.94 239.89200000000005 828.9680000000001 247.05300000000005 C 824.1940000000001 254.21300000000005 821.8070000000001 262.96500000000003 821.8070000000001 273.30800000000005 C 821.8070000000001 283.451 824.1940000000001 292.10400000000004 828.9680000000001 299.26400000000007 C 833.7410000000001 306.22600000000006 840.3050000000001 311.59600000000006 848.6590000000001 315.37500000000006 C 857.0120000000001 318.95500000000004 866.4600000000002 320.74500000000006 877.0020000000001 320.74500000000006 Z M 993.6870000000001 297.77200000000005 L 1029.4900000000002 297.77200000000005 C 1031.6800000000003 304.535 1036.1500000000003 310.10400000000004 1042.9100000000003 314.48 C 1049.8800000000003 318.65700000000004 1058.9300000000003 320.745 1070.0600000000004 320.745 C 1077.6200000000003 320.745 1083.4900000000005 320.049 1087.6700000000003 318.657 C 1091.8400000000004 317.264 1094.7300000000002 315.275 1096.3200000000004 312.69 C 1097.9100000000003 309.905 1098.7100000000005 306.822 1098.7100000000005 303.441 C 1098.7100000000005 299.26399999999995 1097.4100000000005 296.082 1094.8300000000004 293.89399999999995 C 1092.2400000000005 291.50699999999995 1088.2600000000004 289.61699999999996 1082.8900000000003 288.22499999999997 C 1077.5200000000004 286.83299999999997 1070.6600000000003 285.53999999999996 1062.3100000000004 284.347 C 1053.9500000000005 282.954 1045.9000000000003 281.26399999999995 1038.1400000000003 279.275 C 1030.3800000000003 277.286 1023.5200000000003 274.7 1017.5600000000003 271.517 C 1011.5900000000003 268.136 1006.8100000000003 263.959 1003.2300000000002 258.987 C 999.8530000000003 253.81500000000003 998.1620000000003 247.55 998.1620000000003 240.19100000000003 C 998.1620000000003 233.03000000000003 999.8530000000003 226.66600000000003 1003.2300000000002 221.09600000000003 C 1006.8100000000003 215.52700000000004 1011.6900000000003 210.85300000000004 1017.8500000000003 207.07400000000004 C 1024.2200000000003 203.29500000000004 1031.5800000000002 200.41100000000003 1039.9300000000003 198.42200000000005 C 1048.4800000000002 196.43300000000005 1057.6300000000003 195.43800000000005 1067.3800000000003 195.43800000000005 C 1082.1000000000004 195.43800000000005 1094.3300000000004 197.62600000000003 1104.0800000000004 202.00200000000004 C 1113.8200000000004 206.17900000000003 1121.0800000000004 212.14600000000004 1125.8600000000004 219.90300000000005 C 1130.8300000000004 227.46100000000004 1133.3100000000004 236.21300000000005 1133.3100000000004 246.15800000000004 L 1099 246.15800000000004 C 1097.41 238.79800000000003 1094.23 233.52800000000005 1089.46 230.34500000000006 C 1084.68 226.96400000000006 1077.32 225.27300000000005 1067.38 225.27300000000005 C 1057.63 225.27300000000005 1050.2700000000002 226.76500000000004 1045.3000000000002 229.74800000000005 C 1040.3300000000002 232.73200000000006 1037.8400000000001 236.80900000000005 1037.8400000000001 241.98100000000005 C 1037.8400000000001 246.15800000000004 1039.3300000000002 249.44000000000005 1042.3200000000002 251.82600000000005 C 1045.5000000000002 254.01400000000004 1050.0800000000002 255.80400000000006 1056.0400000000002 257.19700000000006 C 1062.2100000000003 258.58900000000006 1069.8700000000001 260.0810000000001 1079.0200000000002 261.6720000000001 C 1086.7700000000002 263.2630000000001 1094.13 265.05300000000005 1101.0900000000001 267.0420000000001 C 1108.2500000000002 269.03100000000006 1114.6200000000001 271.6170000000001 1120.19 274.7990000000001 C 1125.76 277.7830000000001 1130.13 281.86000000000007 1133.31 287.0320000000001 C 1136.7 292.0040000000001 1138.3899999999999 298.3690000000001 1138.3899999999999 306.1260000000001 C 1138.3899999999999 315.6730000000001 1135.6 323.7290000000001 1130.03 330.2920000000001 C 1124.66 336.8560000000001 1116.91 341.9280000000001 1106.76 345.5080000000001 C 1096.62 348.8900000000001 1084.48 350.5800000000001 1070.36 350.5800000000001 C 1057.83 350.5800000000001 1046.99 349.2870000000001 1037.84 346.7020000000001 C 1028.8899999999999 343.9170000000001 1021.43 340.4360000000001 1015.4699999999999 336.2590000000001 C 1009.4999999999999 331.8840000000001 1004.8299999999999 327.30900000000014 1001.4399999999999 322.53500000000014 C 998.262 317.56300000000016 996.074 312.8890000000001 994.88 308.51300000000015 C 993.687 304.13700000000017 993.289 300.55700000000013 993.687 297.77200000000016 Z M 1179.8000000000002 310.82700000000006 C 1179.8000000000002 305.38400000000007 1180.6900000000003 300.42400000000004 1182.4900000000002 295.94500000000005 C 1184.2800000000002 291.398 1186.7900000000002 287.50500000000005 1190.0300000000002 284.26700000000005 C 1193.3400000000001 280.95900000000006 1197.13 278.41 1201.4 276.619 C 1205.74 274.82700000000006 1210.46 273.932 1215.5600000000002 273.932 C 1223.0000000000002 273.932 1229.5100000000002 275.654 1235.0900000000001 279.099 C 1240.7400000000002 282.544 1245.0100000000002 287.436 1247.91 293.775 L 1241.19 296.255 C 1239.6000000000001 292.879 1237.5 290.123 1234.88 287.98699999999997 C 1232.2700000000002 285.782 1229.3000000000002 284.12899999999996 1226 283.02599999999995 C 1222.69 281.924 1219.21 281.37299999999993 1215.56 281.37299999999993 C 1210.3899999999999 281.37299999999993 1205.74 282.5439999999999 1201.61 284.88699999999994 C 1197.4699999999998 287.2289999999999 1194.1999999999998 290.60499999999996 1191.79 295.01499999999993 C 1189.44 299.42499999999995 1188.27 304.69499999999994 1188.27 310.82699999999994 C 1188.27 316.89099999999996 1189.44 322.12699999999995 1191.79 326.5369999999999 C 1194.2 330.9459999999999 1197.47 334.3569999999999 1201.61 336.7679999999999 C 1205.74 339.11099999999993 1210.3899999999999 340.2819999999999 1215.56 340.2819999999999 C 1219.28 340.2819999999999 1222.83 339.69699999999995 1226.2 338.5249999999999 C 1229.5800000000002 337.3539999999999 1232.6100000000001 335.5279999999999 1235.3 333.04799999999994 C 1238.05 330.56699999999995 1240.26 327.4669999999999 1241.9099999999999 323.7459999999999 L 1248.6299999999999 326.2269999999999 C 1245.6699999999998 333.3229999999999 1241.33 338.6979999999999 1235.61 342.34899999999993 C 1229.8899999999999 345.93199999999996 1223.2099999999998 347.72299999999996 1215.56 347.72299999999996 C 1210.46 347.72299999999996 1205.74 346.828 1201.3999999999999 345.03599999999994 C 1197.1299999999999 343.24499999999995 1193.34 340.69599999999997 1190.03 337.3879999999999 C 1186.79 334.0809999999999 1184.28 330.18799999999993 1182.49 325.7099999999999 C 1180.69 321.1619999999999 1179.8 316.20199999999994 1179.8 310.82699999999994 Z M 1284.66 347.72300000000007 C 1279.77 347.72300000000007 1275.4 346.65600000000006 1271.5400000000002 344.5200000000001 C 1267.6800000000003 342.38400000000007 1264.65 339.3520000000001 1262.4400000000003 335.42500000000007 C 1260.2400000000002 331.4290000000001 1259.1400000000003 326.70900000000006 1259.1400000000003 321.2660000000001 C 1259.1400000000003 315.7540000000001 1260.2400000000002 311.00000000000006 1262.4400000000003 307.0040000000001 C 1264.7200000000003 303.00700000000006 1267.7800000000002 299.9410000000001 1271.6400000000003 297.80500000000006 C 1275.5700000000004 295.66900000000004 1279.9800000000002 294.6020000000001 1284.8700000000003 294.6020000000001 C 1289.7600000000004 294.6020000000001 1294.1400000000003 295.6690000000001 1297.9900000000002 297.80500000000006 C 1301.9200000000003 299.9410000000001 1304.9900000000002 303.00700000000006 1307.1900000000003 307.0040000000001 C 1309.4700000000003 310.9310000000001 1310.6000000000004 315.6160000000001 1310.6000000000004 321.0590000000001 C 1310.6000000000004 326.5710000000001 1309.4700000000003 331.3250000000001 1307.1900000000003 335.3210000000001 C 1304.9200000000003 339.3180000000001 1301.8200000000004 342.38400000000007 1297.8900000000003 344.5200000000001 C 1293.9600000000003 346.6560000000001 1289.5500000000004 347.72300000000007 1284.6600000000003 347.72300000000007 Z M 1284.5600000000002 340.3860000000001 C 1287.5900000000001 340.3860000000001 1290.4500000000003 339.7310000000001 1293.14 338.4220000000001 C 1295.8200000000002 337.0440000000001 1297.99 334.94200000000006 1299.65 332.1180000000001 C 1301.3700000000001 329.2240000000001 1302.23 325.5720000000001 1302.23 321.1630000000001 C 1302.23 316.68400000000014 1301.41 313.03200000000015 1299.75 310.2070000000001 C 1298.1 307.3820000000001 1295.93 305.3150000000001 1293.24 304.0060000000001 C 1290.6200000000001 302.6280000000001 1287.8 301.9390000000001 1284.77 301.9390000000001 C 1281.73 301.9390000000001 1278.91 302.6280000000001 1276.29 304.0060000000001 C 1273.67 305.3150000000001 1271.54 307.4170000000001 1269.8799999999999 310.3110000000001 C 1268.3 313.1360000000001 1267.51 316.7530000000001 1267.51 321.16300000000007 C 1267.51 325.6410000000001 1268.3 329.29300000000006 1269.8799999999999 332.11800000000005 C 1271.4699999999998 334.94200000000006 1273.54 337.04400000000004 1276.08 338.422 C 1278.6999999999998 339.73100000000005 1281.53 340.386 1284.56 340.386 Z M 1323.3000000000002 295.3250000000001 L 1330.4300000000003 295.3250000000001 L 1330.8400000000004 302.6630000000001 C 1332.5000000000005 300.11400000000015 1334.6700000000003 298.15000000000015 1337.3500000000004 296.7720000000001 C 1340.0400000000004 295.3250000000001 1343.1800000000003 294.6020000000001 1346.7600000000004 294.6020000000001 C 1350.6900000000005 294.6020000000001 1354.1300000000003 295.4630000000001 1357.0900000000004 297.1850000000001 C 1360.0600000000004 298.8390000000001 1362.3700000000003 301.3540000000001 1364.0200000000004 304.73000000000013 C 1365.6700000000005 308.03700000000015 1366.5000000000005 312.20500000000015 1366.5000000000005 317.2350000000001 L 1366.5000000000005 347 L 1358.7500000000005 347 L 1358.7500000000005 318.165 C 1358.7500000000005 312.791 1357.5800000000004 308.726 1355.2300000000005 305.97 C 1352.9600000000005 303.14500000000004 1349.6500000000005 301.733 1345.3100000000004 301.733 C 1340.8300000000004 301.733 1337.3200000000004 303.214 1334.7700000000004 306.177 C 1332.2900000000004 309.139 1331.0500000000004 313.51500000000004 1331.0500000000004 319.302 L 1331.0500000000004 347 L 1323.3000000000004 347 L 1323.3000000000004 295.325 Z M 1385.7700000000002 331.1870000000001 C 1386.1900000000003 333.25400000000013 1386.9400000000003 334.97700000000015 1388.0500000000002 336.35500000000013 C 1389.15 337.66400000000016 1390.5600000000002 338.6630000000001 1392.2800000000002 339.35200000000015 C 1394.0700000000002 340.04100000000017 1396.14 340.38600000000014 1398.4800000000002 340.38600000000014 C 1402.1400000000003 340.38600000000014 1404.8900000000003 339.6970000000001 1406.7500000000002 338.31900000000013 C 1408.6800000000003 336.8720000000001 1409.6500000000003 335.08000000000015 1409.6500000000003 332.94400000000013 C 1409.6500000000003 331.15300000000013 1409.0600000000004 329.70600000000013 1407.8900000000003 328.60400000000016 C 1406.7900000000004 327.50100000000015 1405.3100000000004 326.60600000000017 1403.4400000000003 325.91700000000014 C 1401.5800000000004 325.15900000000016 1399.5200000000002 324.50400000000013 1397.2400000000002 323.95300000000015 C 1395.4500000000003 323.54000000000013 1393.5200000000002 323.05700000000013 1391.4600000000003 322.50600000000014 C 1389.4127743446857 321.8947243584213 1387.4378913286316 321.06319466745117 1385.5700000000002 320.0260000000001 C 1383.7000000000003 318.99200000000013 1382.19 317.6490000000001 1381.0200000000002 315.9950000000001 C 1379.8500000000004 314.3410000000001 1379.2600000000002 312.1710000000001 1379.2600000000002 309.4840000000001 C 1379.2600000000002 306.5210000000001 1380.0500000000002 303.93700000000007 1381.6400000000003 301.7330000000001 C 1383.2900000000004 299.4590000000001 1385.5300000000004 297.7020000000001 1388.3600000000004 296.4620000000001 C 1391.2500000000005 295.2220000000001 1394.5600000000004 294.6020000000001 1398.2800000000004 294.6020000000001 C 1402.5500000000004 294.6020000000001 1406.3400000000004 295.5320000000001 1409.6500000000003 297.3920000000001 C 1413.0200000000002 299.2520000000001 1415.3600000000004 302.14600000000013 1416.6700000000003 306.0730000000001 L 1409.4400000000003 308.5540000000001 C 1408.9600000000003 306.7620000000001 1408.0600000000002 305.38400000000007 1406.7500000000002 304.4200000000001 C 1405.5041606137675 303.451827421443 1404.0541463094823 302.7801698521939 1402.5100000000002 302.4560000000001 C 1401.020767481198 302.11439996104446 1399.4979071157811 301.9409817211941 1397.9700000000003 301.9390000000001 C 1394.8700000000003 301.9390000000001 1392.3500000000004 302.5590000000001 1390.4200000000003 303.80000000000007 C 1388.5600000000004 304.97100000000006 1387.6300000000003 306.76200000000006 1387.6300000000003 309.1740000000001 C 1387.6300000000003 310.4830000000001 1387.9400000000003 311.5850000000001 1388.5600000000004 312.4810000000001 C 1389.1800000000003 313.3080000000001 1390.0400000000004 313.9970000000001 1391.1500000000003 314.5480000000001 C 1392.2500000000002 315.0990000000001 1393.5600000000004 315.5820000000001 1395.0700000000004 315.9950000000001 C 1396.5900000000004 316.3390000000001 1398.2400000000005 316.7530000000001 1400.0300000000004 317.2350000000001 C 1402.0300000000004 317.71700000000016 1404.0600000000004 318.33800000000014 1406.1300000000003 319.09500000000014 C 1408.2000000000003 319.78400000000016 1410.1300000000003 320.71500000000015 1411.9200000000003 321.88600000000014 C 1413.6911498833038 322.96746128544123 1415.1789467952958 324.45560100778175 1416.2600000000002 326.22700000000015 C 1417.4300000000003 327.9490000000001 1418.0200000000002 330.11900000000014 1418.0200000000002 332.73800000000017 C 1418.0200000000002 335.7690000000002 1417.1900000000003 338.4220000000002 1415.5400000000002 340.6960000000002 C 1413.88 342.9000000000002 1411.5700000000002 344.6230000000002 1408.6100000000001 345.86300000000017 C 1405.72 347.1030000000002 1402.3400000000001 347.7230000000002 1398.48 347.7230000000002 C 1393.18 347.7230000000002 1388.77 346.5520000000002 1385.26 344.2100000000002 C 1381.81 341.79800000000023 1379.5 338.2840000000002 1378.33 333.66800000000023 L 1385.77 331.18700000000024 Z M 1432.14 295.3250000000001 L 1439.7800000000002 295.3250000000001 L 1439.7800000000002 347 L 1432.14 347 L 1432.14 295.325 Z M 1436.0600000000002 284.9900000000001 C 1434.4800000000002 284.9900000000001 1433.17 284.4730000000001 1432.14 283.4400000000001 C 1431.1000000000001 282.4060000000001 1430.5900000000001 281.1320000000001 1430.5900000000001 279.6160000000001 C 1430.5900000000001 278.0310000000001 1431.1000000000001 276.7220000000001 1432.14 275.6880000000001 C 1433.17 274.6550000000001 1434.48 274.1380000000001 1436.0600000000002 274.1380000000001 C 1437.5100000000002 274.1380000000001 1438.7500000000002 274.6550000000001 1439.7800000000002 275.6880000000001 C 1440.89 276.7220000000001 1441.4400000000003 278.0310000000001 1441.4400000000003 279.6160000000001 C 1441.4400000000003 281.1320000000001 1440.8900000000003 282.4060000000001 1439.7800000000002 283.4400000000001 C 1438.7500000000002 284.4730000000001 1437.5100000000002 284.9900000000001 1436.0600000000002 284.9900000000001 Z M 1457.2300000000002 272.58800000000014 L 1464.9800000000002 272.58800000000014 L 1464.9800000000002 347 L 1457.2300000000002 347 L 1457.2300000000002 272.58799999999997 Z M 1482.3000000000002 295.32500000000016 L 1489.9400000000003 295.32500000000016 L 1489.9400000000003 347 L 1482.3000000000002 347 L 1482.3000000000002 295.325 Z M 1486.2200000000003 284.9900000000002 C 1484.6400000000003 284.9900000000002 1483.3300000000002 284.4730000000002 1482.3000000000002 283.44000000000017 C 1481.2600000000002 282.4060000000002 1480.7500000000002 281.1320000000002 1480.7500000000002 279.61600000000016 C 1480.7500000000002 278.0310000000002 1481.2600000000002 276.72200000000015 1482.3000000000002 275.68800000000016 C 1483.3300000000002 274.65500000000014 1484.64 274.13800000000015 1486.2200000000003 274.13800000000015 C 1487.6700000000003 274.13800000000015 1488.9100000000003 274.65500000000014 1489.9400000000003 275.68800000000016 C 1491.0500000000002 276.72200000000015 1491.6000000000004 278.0310000000002 1491.6000000000004 279.61600000000016 C 1491.6000000000004 281.1320000000002 1491.0500000000004 282.4060000000002 1489.9400000000003 283.44000000000017 C 1488.9100000000003 284.4730000000002 1487.6700000000003 284.9900000000002 1486.2200000000003 284.9900000000002 Z M 1549.6600000000003 347.00000000000017 L 1542.6300000000003 347.00000000000017 L 1542.1200000000003 339.5590000000002 C 1540.5300000000004 342.1770000000002 1538.4000000000003 344.2100000000002 1535.7100000000003 345.6560000000002 C 1533.0200000000002 347.03400000000016 1529.8900000000003 347.7230000000002 1526.3000000000002 347.7230000000002 C 1522.3100000000002 347.7230000000002 1518.8300000000002 346.89700000000016 1515.8700000000001 345.24300000000017 C 1512.9 343.58900000000017 1510.6000000000001 341.10900000000015 1508.94 337.8020000000002 C 1507.3600000000001 334.4950000000002 1506.56 330.3260000000002 1506.56 325.29600000000016 L 1506.56 295.32500000000016 L 1514.21 295.32500000000016 L 1514.21 324.47000000000014 C 1514.21 329.77500000000015 1515.3500000000001 333.80600000000015 1517.6200000000001 336.5620000000001 C 1519.97 339.24900000000014 1523.3100000000002 340.5920000000001 1527.65 340.5920000000001 C 1532.0600000000002 340.5920000000001 1535.5400000000002 339.1800000000001 1538.0900000000001 336.3550000000001 C 1540.7 333.46100000000007 1542.0100000000002 329.12000000000006 1542.0100000000002 323.3330000000001 L 1542.0100000000002 295.3250000000001 L 1549.6600000000003 295.3250000000001 L 1549.6600000000003 347 Z M 1565.4200000000003 295.32500000000016 L 1572.5600000000004 295.32500000000016 L 1573.0700000000004 302.76600000000013 C 1574.5628708853476 300.3104109118594 1576.663877559288 298.28138954855064 1579.1700000000003 296.8750000000001 C 1581.7900000000002 295.3590000000001 1584.8900000000003 294.6020000000001 1588.4700000000003 294.6020000000001 C 1592.1200000000003 294.6020000000001 1595.4300000000003 295.49700000000007 1598.3900000000003 297.2890000000001 C 1601.4300000000003 299.0110000000001 1603.7700000000004 301.5950000000001 1605.4200000000003 305.0400000000001 C 1607.0100000000002 301.52600000000007 1609.4200000000003 298.9080000000001 1612.6600000000003 297.18500000000006 C 1615.8900000000003 295.4630000000001 1619.4800000000002 294.60200000000003 1623.4000000000003 294.60200000000003 C 1627.2600000000002 294.60200000000003 1630.6700000000003 295.463 1633.6400000000003 297.18500000000006 C 1636.6000000000004 298.83900000000006 1638.9100000000003 301.35400000000004 1640.5600000000004 304.7300000000001 C 1642.2100000000005 308.0370000000001 1643.0400000000004 312.2050000000001 1643.0400000000004 317.23500000000007 L 1643.0400000000004 347 L 1635.2900000000004 347 L 1635.2900000000004 318.165 C 1635.2900000000004 312.791 1634.1200000000003 308.726 1631.7800000000004 305.97 C 1629.5000000000005 303.14500000000004 1626.2300000000005 301.733 1621.9600000000005 301.733 C 1617.6200000000006 301.733 1614.1700000000005 303.248 1611.6200000000006 306.28000000000003 C 1609.0700000000006 309.24300000000005 1607.8000000000006 313.65200000000004 1607.8000000000006 319.509 L 1607.8000000000006 347 L 1600.0500000000006 347 L 1600.0500000000006 318.165 C 1600.0500000000006 312.791 1598.9400000000007 308.726 1596.7400000000007 305.97 C 1594.5400000000006 303.14500000000004 1591.3000000000006 301.733 1587.0200000000007 301.733 C 1582.6800000000007 301.733 1579.2700000000007 303.248 1576.7900000000006 306.28000000000003 C 1574.3800000000006 309.24300000000005 1573.1800000000007 313.65200000000004 1573.1800000000007 319.509 L 1573.1800000000007 347 L 1565.4200000000008 347 L 1565.4200000000008 295.325 Z" stroke-linecap="round" />
</g>
</g>
</g>
</svg>